<?xml version="1.0" encoding="UTF-8" standalone="no"?><!-- Generator: Gravit.io --><svg xmlns="http://www.w3.org/2000/svg" xmlns:xlink="http://www.w3.org/1999/xlink" style="isolation:isolate" viewBox="0 0 1500 1750" width="1500pt" height="1750pt"><defs><clipPath id="_clipPath_f0FnGXxEeb3v1RrUOW1FatdnsH25BSTF"><rect width="1500" height="1750"/></clipPath></defs><g clip-path="url(#_clipPath_f0FnGXxEeb3v1RrUOW1FatdnsH25BSTF)"><g><path d=" M 1425.263 -0.369 L 1273.875 -0.369 C 1346.419 113.494 1451.537 112.462 1499.9 225.9 L 1499.9 140.9 L 1495.326 58.854 L 1495.326 -0.369 L 1425.263 -0.369 Z " fill="rgb(137,241,68)"/><path d=" M 1340.685 -0.369 C 1340.118 -0.936 1339.547 -1.507 1338.974 -2.083 L 1393.196 -15.272 L 1393.196 -15.272 C 1446.078 30.17 1488.668 61.933 1529.438 112.506 L 1531.151 191.748 C 1435.669 59.384 1448.809 107.754 1340.685 -0.369" fill="rgb(60,190,64)"/><path d=" M 1426.907 -0.369 C 1457.505 32.623 1468.669 25.812 1554.13 118.734 L 1510.009 118.768 C 1457.759 69.888 1418.901 44.865 1382.629 -0.369 L 1426.907 -0.369 L 1426.907 -0.369 Z " fill="rgb(255,255,255)"/><path d=" M 1500 -0.369 L 1500 63 C 1467.719 34.81 1443.584 21.928 1425.263 -0.369 L 1500 -0.369 Z " fill="rgb(61,192,62)"/></g></g></svg>